<svg xmlns="http://www.w3.org/2000/svg" width="28.114" height="31.16" viewBox="0 0 28.114 31.16">
  <path id="app" d="M37.384,12.606,16.12.451A3.425,3.425,0,0,0,11,3.425V27.734a3.425,3.425,0,0,0,5.125,2.974L37.383,18.554a3.425,3.425,0,0,0,0-5.948ZM28.17,9.732,25.25,13.8,18.267,4.071ZM14.286,29.071a1.336,1.336,0,0,1-.542-.17,1.352,1.352,0,0,1-.671-1.166V3.425a1.342,1.342,0,0,1,1.212-1.339L23.971,15.58Zm3.98-1.982,6.983-9.728,2.92,4.067ZM36.353,16.75l-6.37,3.641L26.529,15.58l3.454-4.811,6.37,3.641a1.348,1.348,0,0,1,0,2.34Z" transform="translate(-10.995)" fill="#fff"/>
</svg>
