<svg id="Icon" xmlns="http://www.w3.org/2000/svg" width="49.753" height="37.863" viewBox="0 0 49.753 37.863">
  <path id="Path_5759" data-name="Path 5759" d="M43.679,57.75H6.084A6.089,6.089,0,0,0,0,63.834V89.529a6.089,6.089,0,0,0,6.084,6.084H43.669a6.089,6.089,0,0,0,6.084-6.084V63.844A6.083,6.083,0,0,0,43.679,57.75Zm3.3,31.779a3.308,3.308,0,0,1-3.3,3.3H6.084a3.308,3.308,0,0,1-3.3-3.3V63.844a3.308,3.308,0,0,1,3.3-3.3H43.669a3.308,3.308,0,0,1,3.3,3.3V89.529Z" transform="translate(0 -57.75)" fill="#7d7b8f"/>
  <path id="Path_5760" data-name="Path 5760" d="M81.39,122.249l12.168-10.912a1.392,1.392,0,1,0-1.863-2.069l-16.78,15.061L71.642,121.4c-.01-.01-.021-.021-.021-.031a2.057,2.057,0,0,0-.226-.2L58.074,109.257a1.393,1.393,0,1,0-1.853,2.079l12.312,11L56.272,133.82a1.4,1.4,0,0,0-.062,1.966,1.422,1.422,0,0,0,1.019.443,1.393,1.393,0,0,0,.947-.371l12.446-11.643L74,127.231a1.386,1.386,0,0,0,1.853-.01l3.469-3.109L91.7,135.868a1.393,1.393,0,0,0,1.966-.051,1.4,1.4,0,0,0-.051-1.966Z" transform="translate(-50.013 -103.637)" fill="#7d7b8f"/>
</svg>
